<?xml version="1.0" encoding="UTF-8"?>
<svg id="Livello_1" xmlns="http://www.w3.org/2000/svg" version="1.1" viewBox="0 0 76.5 73">
  <!-- Generator: Adobe Illustrator 29.6.1, SVG Export Plug-In . SVG Version: 2.1.1 Build 9)  -->
  <defs>
    <style>
      .st0 {
        fill-rule: evenodd;
      }
    </style>
  </defs>
  <path d="M69.75,47.73c-.02.07-.06.13-.06.21-.13,1.86-.29,3.71-.48,5.56-.8,8.1-7.5,14.8-15.6,15.6-11.3,1.2-22.7,1.2-34,0-7.9-.8-14.8-7.7-15.6-15.6-1.2-11.3-1.2-22.7,0-34,.8-8,7.7-14.8,15.6-15.6,5.6-.6,11.3-.9,17-.9s11.4.3,17,.9c8.1.8,14.8,7.5,15.6,15.6.09.85.17,1.7.24,2.55.03.34.25.63.57.75l1.3.48c.61.22,1.24-.26,1.19-.9-.09-1.06-.19-2.12-.3-3.17-1-9.5-8.8-17.3-18.3-18.3C42.4-.3,30.7-.3,19.2.9,9.8,1.9,1.9,9.7.9,19.2-.3,30.7-.3,42.3.9,53.8c.97,8.37,7.14,15.41,15.09,17.66l-1.85-1.32,1.85,1.32c1.07.3,2.18.53,3.31.64,5.7.6,11.5.9,17.3.9s11.6-.3,17.3-.9c1.05-.11,2.07-.32,3.07-.59l1.93-1.68-1.93,1.68c8-2.18,14.34-9.27,15.23-17.71.19-1.79.34-3.59.46-5.39,0-.09,0-.17-.03-.25l-2.89-.43Z"/>
  <g>
    <path d="M37.23,14.61c-9.34.41-13.63,9.67-11.11,17.66.14.39.32.81.74.8.31-.24,2.31-1.75,4.79-1.2.37.08,1.84.43,2.85,1.7.56.7.95,1.65.85,1.71-.06.03-.21-.09-.51-.46-.53-.77-1.34-1.59-2.25-2.01-5.63-2.84-8.71,6.31-4.22,9.07.77.47,1.62.71,2.34.53,1.03-.24,2.42-1.22,3.41-1.88.25-.16.84-.46.39.12-.44.56-1.32,1.11-1.38,1.88.1,2.18,1.23,8.49.66,10.61-.21.67-.34-.35-.35-.54-.07-.69-.05-1.39-.11-1.74-.14-1.28-2.83.3-3.64.5-7.06,2.79-12.22,7.96-14.64,14.62-.23.76.13,1.1.9,1.06,12.6-.7,32.19-3.11,35.29-15.07.23-.88-.38-1.35-1.16-1.72-.88-.35-2.42-1.09-3.21-1.11-.68.03-.35.92-.57,2.55-.06.6-.39,1.99-.45.42-.24-1.27.69-3.8-1.34-3.84-1.09-.15-3.25-.02-4-.81,5.65.86,11.86.2,15.1-5.19,8.07-12.82-3.45-29.67-18.15-27.66l-.2.02ZM30.97,34.83c1.38,1.06,2.17,2.82,1.73,4.61-.09.32-.25.97-.57.89-.13-.07-.12-.36-.02-.6.35-1.17.32-2.39-.42-3.43-.09-.22-2.56-2.53-.8-1.53l.08.06Z"/>
    <path d="M42.28,70.8c.15-.03.3-.08.45-.13,3.7-1.35,6.44-3.31,8.61-5.9.23-.26.39-.33.33,0-.33,1.83-4.18,4.27-7.18,5.71-.23.14-.64.45-.43.71.09.14.32.21.56.23,3.45,0,7.84.06,11.34.02.71,0,1.39-.27,1.92-.73h0c.64-.56,1-1.36,1.03-2.21.2-6.23-1.38-13.31-6.04-16.7-.07-.04-.21-.13-.28-.17-.32-.14-.42.17-.48.53l-.04.15c-4.21,12.69-20.69,14.33-36.19,15.65-1.02-.01-1.17.8-1.31,1.7"/>
    <path d="M14.57,69.67c0,.62,12.4,1.13,27.71,1.13"/>
  </g>
  <path d="M73.11,28.66c.83-.11,1.54-.65,1.87-1.42l1.45-3.45c.16-.36.02-.78-.32-.97-.35-.17-.78-.03-.95.33,0,.01-.01.02-.02.04l-1.48,3.52v-3.47c0-.66-.53-1.19-1.19-1.19h-.71s-1.42,0-1.42,0h-1.19c-.66,0-1.19.53-1.19,1.19v3.32c0,1.18.96,2.14,2.14,2.14h2.85c.05,0,.11,0,.16-.02ZM70.1,27.25c-.39,0-.71-.32-.71-.71v-3.08h2.85v3.65s-.13.14-.13.14h-2Z"/>
  <path class="st0" d="M74.26,44.17c-.27-.04-.52.15-.56.42-.2,1.37-.73,1.88-1.2,2.34-.26.25-.52.51-.69.87l-.11-.02c.06-.67.22-1.1.36-1.49.22-.59.42-1.15.16-2.12-.07-.26-.34-.42-.6-.35-.26.07-.42.34-.35.6.18.66.06.98-.14,1.52-.15.42-.34.93-.41,1.69l-.2-.03c-.22-.49-.15-.86-.06-1.35.12-.62.26-1.38-.22-2.45-.11-.25-.4-.36-.65-.25-.25.11-.36.4-.25.65.35.78.26,1.28.15,1.86-.11.58-.23,1.24.2,2.06l2.95.27c.04-.29.21-.47.54-.78.52-.51,1.24-1.21,1.49-2.91.04-.27-.15-.52-.42-.56Z"/>
</svg>